PathFileType	3	(X/Y/Z)	D:\minhoCalibration\240510\subject1_KPNP\preferred\preferred16.trc
DataRate	CameraRate	NumFrames	NumMarkers	Units	OrigDataRate	OrigDataStartFrame	OrigNumFrames
200.0	200.0	33	10	mm	200.0	445	185	
Frame#	Time	Left_Ankle_Outer1			Left_Ankle_Inner1			Left_Knee_Outer1			Left_Knee_Inner1			Left_Wrist1			Right_Wrist1			Right_Knee_Inner1			Right_Knee_Outer1			Right_Ankle_Inner1			Right_Ankle_Outer1			
		X1	Y1	Z1	X2	Y2	Z2	X3	Y3	Z3	X4	Y4	Z4	X5	Y5	Z5	X6	Y6	Z6	X7	Y7	Z7	X8	Y8	Z8	X9	Y9	Z9	X10	Y10	Z10	
445	2.215	-505.69034	146.35213	-536.73004	-549.45367	153.84831	-502.41483	-368.26212	560.41504	-396.36453	-473.77652	539.49579	-365.53094	-375.09601	1018.7465	-573.75085	-669.66223	1123.3352	-384.99768	-383.33682	850.37024	-86.75296	-482.30737	897.93726	-44.236034	-561.24115	464.30972	71.485268	-588.50153	498.80081	179.63815
446	2.22	-505.16565	145.68954	-537.52429	-549.0094	153.17953	-503.34882	-367.1821	559.06915	-395.53757	-472.45309	537.71722	-364.74561	-374.10281	1017.7844	-571.64508	-670.82056	1120.069	-384.88467	-390.12152	840.21051	-86.109779	-490.2861	885.40442	-44.982056	-569.58667	448.46451	54.584736	-599.31787	478.77396	163.662
447	2.225	-504.81772	144.95593	-538.20709	-548.70319	152.45168	-504.17328	-366.21115	557.59027	-394.6655	-471.72409	536.3786	-363.86459	-373.15198	1016.7105	-569.46625	-672.11499	1116.6266	-384.85791	-396.65979	830.13434	-86.139557	-498.41833	873.00183	-46.220718	-578.2804	432.84613	37.705658	-610.7558	459.39236	145.40771
448	2.23	-504.32474	144.10941	-538.82831	-548.29382	151.95532	-505.03421	-365.19421	556.04852	-393.73508	-470.5408	534.90057	-362.7449	-372.172	1015.4377	-567.30243	-673.59375	1112.9689	-384.76822	-403.63028	819.86523	-86.649605	-506.64484	860.64648	-47.99733	-586.56702	417.85083	20.268187	-621.76691	441.31354	128.14185
449	2.235	-503.68695	143.36948	-539.49261	-547.88586	151.13206	-505.7261	-364.14053	554.57892	-392.77115	-469.24319	533.36322	-361.53513	-371.15805	1014.0097	-565.08221	-675.01764	1108.9937	-384.87561	-410.85519	809.40283	-87.6689	-514.9505	848.36194	-50.351925	-594.9566	403.4274	2.6882358	-633.07092	423.79242	111.11117
450	2.24	-503.15601	142.47495	-540.21399	-547.3739	150.38567	-506.41351	-363.23459	552.97919	-391.76181	-467.83871	531.63867	-360.37445	-370.21225	1012.3961	-562.75201	-676.30328	1104.8776	-385.28741	-418.15488	798.66895	-89.122826	-523.22253	836.22803	-52.902378	-602.94543	389.56674	-15.272252	-644.01837	406.65717	92.975342
451	2.245	-502.55365	141.53741	-540.94409	-547.35773	149.19289	-507.52072	-362.25076	551.4007	-390.74789	-466.59958	530.11279	-359.00916	-369.26675	1010.7087	-560.30042	-677.78143	1100.5988	-385.58997	-425.59833	787.68274	-90.94516	-531.58936	823.99365	-56.258808	-611.20496	376.16513	-33.192543	-654.21771	390.98242	76.528099
452	2.25	-502.23917	140.28841	-541.25818	-547.11353	148.14859	-508.23022	-361.19049	549.79181	-389.78726	-465.86508	528.14862	-357.74664	-368.18909	1008.8577	-557.84894	-679.11609	1096.1549	-386.22681	-433.14017	776.43695	-93.089996	-539.96063	811.53491	-60.022552	-619.83191	363.00604	-50.784935	-665.0174	375.41913	59.071712
453	2.255	-501.48236	139.50642	-542.35559	-546.63165	147.56842	-509.41211	-360.40421	548.01562	-388.68683	-464.46292	526.37018	-356.95364	-367.16147	1006.9387	-555.3045	-680.25525	1091.2755	-386.95001	-440.75687	765.06451	-95.586609	-548.45215	799.28339	-63.951374	-626.93341	350.82959	-69.67675	-675.75537	360.09396	40.856483
454	2.26	-500.93967	138.44322	-543.20312	-546.85846	147.10825	-511.45148	-359.54245	546.3504	-387.57614	-463.61426	524.55914	-355.87164	-366.07416	1005.1198	-552.77264	-681.40839	1086.4688	-387.84854	-448.52942	753.54657	-98.338417	-556.99658	786.93835	-68.133194	-635.90686	337.52505	-86.168007	-686.07141	345.48459	23.221746
455	2.265	-500.37848	137.33347	-544.00189	-546.49854	146.05321	-512.44824	-358.77576	544.4964	-386.52228	-462.88629	522.71399	-355.0119	-365.00189	1003.3152	-550.19482	-682.53198	1081.5645	-388.76797	-456.42206	741.94403	-101.41272	-565.5235	774.63135	-72.707718	-643.31128	326.57956	-104.13689	-695.83942	331.68466	6.8981771
456	2.27	-499.77814	136.1727	-544.86786	-546.1156	144.98622	-513.50269	-358.12195	542.63251	-385.33258	-462.41864	520.85217	-354.17712	-364.40134	1001.3931	-547.48157	-683.53284	1076.5844	-389.75708	-464.54684	730.25671	-104.88249	-574.00885	762.28491	-77.783356	-650.17108	315.18008	-121.80436	-706.0791	317.5491	-11.685796
457	2.275	-499.25739	134.90157	-545.73999	-545.78699	143.83038	-514.50348	-357.62646	540.73969	-384.03448	-461.65027	519.26837	-352.81714	-363.24924	999.69525	-545.03833	-684.44244	1071.6434	-390.92529	-472.73032	718.50433	-108.91866	-582.30188	749.97589	-83.227013	-656.70709	305.30396	-138.85103	-715.6712	304.08386	-29.298241
458	2.28	-498.74884	133.62502	-546.66266	-545.5545	142.59062	-515.70428	-357.02264	538.86194	-382.64191	-461.71854	517.05133	-352.40668	-362.54449	997.84363	-542.39709	-685.36005	1066.767	-392.14902	-481.01495	706.75977	-113.46964	-590.55481	737.82843	-89.294586	-664.80475	293.85577	-155.14108	-724.93085	290.87711	-46.642689
459	2.285	-498.45187	132.2093	-547.53442	-545.28717	141.24541	-516.73242	-356.85876	536.82697	-381.30035	-461.70206	515.14301	-351.64661	-361.81873	996.08533	-539.80237	-686.16052	1062.0891	-393.26617	-489.21527	695.03607	-118.7091	-598.63757	725.85992	-95.81678	-670.14978	282.67542	-172.03967	-733.55072	278.2926	-62.785976
460	2.29	-498.22098	130.8114	-548.26624	-544.9458	139.8848	-517.42615	-356.69586	534.8418	-379.93967	-462.12946	513.0462	-351.15958	-361.27432	994.17413	-537.27917	-686.89264	1057.5398	-394.46805	-497.38953	683.30011	-124.65635	-606.63043	714.05188	-102.88491	-677.17969	271.85602	-190.12227	-742.44769	265.6662	-80.014168
461	2.295	-498.25159	129.27237	-548.89624	-545.05798	138.53072	-518.19806	-356.70569	532.7865	-378.71738	-462.07858	510.95255	-349.68021	-360.64563	992.39819	-534.86884	-687.62177	1053.2164	-395.73825	-505.20129	671.58142	-130.94434	-614.45947	702.49591	-110.53371	-682.41418	263.71829	-204.54541	-750.97534	253.3992	-96.919601
462	2.3	-498.38574	127.7872	-549.50238	-545.52051	137.13756	-519.05896	-356.89066	530.68213	-377.332	-462.15881	509.01974	-349.05197	-360.05005	990.59143	-532.64612	-688.38226	1049.1616	-396.98825	-513.07739	660.05341	-137.96428	-622.0564	691.17749	-118.77509	-689.47369	252.28375	-220.96193	-759.15833	241.51747	-113.28232
463	2.305	-498.63275	126.22449	-550.14893	-545.9754	135.62404	-519.74091	-357.32788	528.53119	-376.06076	-462.89386	506.83481	-348.53098	-359.4632	988.83417	-530.51031	-689.29077	1045.1952	-398.16956	-520.71155	648.37994	-145.83105	-629.39166	680.00739	-127.45741	-695.79956	241.6376	-236.59911	-767.1582	229.97424	-129.19826
464	2.31	-499.0647	124.65681	-550.66162	-546.5838	134.15805	-520.54431	-357.89996	526.39136	-374.78122	-464.03784	504.71289	-347.82791	-359.04504	987.00824	-528.42456	-690.22095	1041.4473	-399.33459	-528.21161	636.87299	-154.57654	-636.46802	669.19922	-136.65973	-701.38965	232.42709	-250.56917	-774.98975	218.8593	-144.46484
465	2.315	-499.56082	123.17603	-551.12286	-547.31232	132.66214	-521.27191	-358.6394	524.41675	-373.4425	-465.05679	502.78293	-347.40283	-358.26797	985.40344	-526.54175	-691.25989	1037.8007	-400.48477	-535.10126	625.86389	-163.1722	-643.26312	658.76776	-146.2318	-703.96997	224.25038	-263.67569	-782.59888	208.17455	-159.39442
466	2.32	-500.14407	121.6508	-551.62811	-548.11359	131.20871	-521.95685	-360.03546	522.17487	-372.02747	-466.77353	500.89746	-346.81635	-358.05746	983.61316	-524.24298	-692.33698	1034.0865	-401.57172	-541.96564	615.43774	-172.46567	-649.8031	648.60626	-156.29111	-712.60541	213.68347	-279.66553	-790.07336	198.04442	-173.91591
467	2.325	-500.77258	120.15924	-551.95428	-548.95361	129.81592	-522.42657	-361.23584	520.19836	-370.62115	-468.13284	499.12	-346.76877	-357.93622	981.84821	-521.91858	-693.45135	1030.4126	-402.74905	-548.7829	605.15161	-183.66	-656.09222	638.77594	-166.67084	-717.63983	205.4669	-292.20221	-797.26746	188.38962	-188.23889
468	2.33	-501.52469	118.97562	-552.18958	-550.41107	128.6895	-523.95282	-362.65506	518.32806	-369.05881	-470.23135	497.39758	-346.19693	-357.7525	980.21741	-519.67981	-694.47797	1026.6747	-404.02487	-554.81207	595.64929	-193.83592	-662.26129	629.20929	-177.25819	-723.07159	197.5163	-305.67365	-803.96802	179.15605	-202.78561
469	2.335	-502.33273	117.73568	-552.33124	-551.31946	127.19808	-523.75714	-363.90271	516.72882	-367.41806	-472.15256	495.98047	-345.81277	-357.81839	978.92712	-517.51196	-695.48236	1022.8424	-405.67004	-560.71478	586.01483	-206.62263	-668.20154	620.00574	-188.05928	-730.56427	188.4958	-320.01819	-810.24353	170.1297	-217.32918
470	2.34	-503.07001	116.59244	-552.38556	-552.33179	125.9952	-524.1532	-365.56323	515.23962	-365.80316	-474.02316	494.85843	-345.26114	-357.57538	977.69958	-515.45886	-696.34296	1019.4958	-407.37671	-566.69897	577.50989	-217.49428	-673.89905	611.20282	-199.05023	-735.98865	179.42447	-334.15213	-816.41504	161.16	-231.83298
471	2.345	-503.79807	115.54911	-552.4519	-553.22351	124.87843	-524.37	-367.53995	513.96613	-364.14911	-475.94678	493.58636	-345.11301	-357.59579	976.45428	-513.39612	-697.39905	1014.8353	-410.44571	-572.39197	569.15747	-229.13432	-679.38483	602.79279	-210.13942	-740.62695	171.92549	-346.96896	-822.75977	152.24872	-245.77252
472	2.35	-504.40967	114.62098	-552.5498	-554.09723	123.9737	-524.8678	-369.18494	512.91748	-362.42792	-477.82593	492.80713	-344.66663	-357.68176	975.3703	-511.39743	-697.75897	1010.928	-414.50024	-577.65472	561.3656	-240.46291	-684.86865	595.12299	-221.22093	-744.71692	163.76482	-357.99182	-829.28485	143.5473	-259.21478
473	2.355	-505.04071	113.65016	-552.6012	-554.7135	122.78689	-524.9054	-371.13345	512.09973	-360.78116	-480.03683	492.03442	-343.97412	-357.99051	974.22192	-509.48257	-699.86359	1007.3905	-416.56891	-583.28827	553.96997	-252.67944	-690.35638	588.15491	-232.35886	-749.07635	155.69753	-367.18463	-836.35864	136.12378	-271.04816
474	2.36	-505.43921	112.77928	-552.72266	-555.41443	121.82492	-525.2547	-373.23148	511.13968	-359.18088	-482.63046	490.54907	-344.73318	-358.42197	973.21014	-507.60312	-701.98663	1004.9514	-418.32663	-588.88287	548.04407	-260.80518	-695.97375	582.05237	-243.71335	-750.87885	148.18892	-373.19974	-843.56635	130.54063	-280.6434
475	2.365	-505.82605	111.86411	-552.79065	-556.03918	120.83543	-525.60455	-375.31351	510.27399	-357.72235	-484.88394	489.92456	-343.79745	-359.02545	972.2644	-505.74274	-704.04779	1003.6407	-419.7923	-594.73907	541.02649	-276.63525	-701.87311	576.98669	-255.11601	-752.17609	140.81964	-376.43445	-850.2934	125.80978	-291.00888
476	2.37	-506.18036	110.96314	-552.89148	-556.63885	119.8	-525.96429	-377.466	509.48346	-356.37714	-486.64423	489.53522	-343.58163	-359.36057	971.43756	-504.10944	-705.39636	1001.4828	-423.73914	-600.29041	535.39142	-289.53055	-708.30298	573.09705	-266.76215	-751.96881	133.91464	-379.42578	-856.4632	123.61568	-299.45349
477	2.375	-506.6626	109.96217	-553.01855	-557.44641	119.05091	-526.71753	-379.71909	508.70782	-355.24677	-488.88751	488.77676	-343.5932	-359.72256	970.71277	-502.51056	-705.29614	1000.1397	-429.59711	-605.8454	531.39276	-300.84531	-715.41968	570.19678	-278.23248	-751.68677	128.28665	-381.84192	-860.59937	123.04059	-307.31915
